# xmcd
# 
# Track frame offsets:
#     182
#     25422
#     41310
#     59015
#     77697
#     96595
#     113617
#     127637
#     145815
#     161897
#     178085
#     198497
#     217580
# 
# Disc length: 3156
# 
# Revision: 38
# Processed by: cddbd v1.5.2PL0 Copyright (c) Steve Scherf et al.
# Submitted via: fre:ac v1.0.31
# 
DISCID=ae0c520d
DTITLE=Faith Hill - Breathe
DYEAR=1999
DGENRE=Country
TTITLE0=What's in It For Me ( 1999 ) - Faith Hill
TTITLE1=I Got My Baby ( 1999 ) - Faith Hill
TTITLE2=Love Is a Sweet Thing ( 1999 ) - Faith Hill
TTITLE3=Breathe ( 1999 ) - Faith Hill
TTITLE4=Let's Make Love ( with Tim McGraw ) ( 1999 ) - Faith Hill
TTITLE5=It Will Be Me ( 1999 ) - Faith Hill
TTITLE6=The Way You Love Me ( 1999 ) - Faith Hill
TTITLE7=If I'm Not in Love ( 1999 ) - Faith Hill
TTITLE8=Bringing out the Elvis ( 1999 ) - Faith Hill
TTITLE9=If My Heart Had Wings ( 1999 ) - Faith Hill
TTITLE10=If I Should Fall Behind ( 1999 ) - Faith Hill
TTITLE11=That's How Love Moves ( 1999 ) - Faith Hill
TTITLE12=There Will Come a Day ( 1999 ) - Faith Hill
EXTD=YEAR: 1999
EXTT0=
EXTT1=
EXTT2=
EXTT3=
EXTT4=
EXTT5=
EXTT6=
EXTT7=
EXTT8=
EXTT9=
EXTT10=
EXTT11=
EXTT12=
PLAYORDER=
